<svg width="28" height="28" viewBox="0 0 28 28" fill="none" xmlns="http://www.w3.org/2000/svg">
<path d="M27.874 22.3148L27.7347 21.8949C27.4046 20.9138 26.3227 19.8906 25.3287 19.621L21.6501 18.6161C20.6526 18.3447 19.2296 18.7096 18.4997 19.4394L17.1683 20.7708C12.3299 19.4634 8.53582 15.6692 7.23017 10.8317L8.56158 9.50028C9.29146 8.77041 9.65633 7.34927 9.38493 6.3517L8.38184 2.67128C8.11044 1.67552 7.08534 0.593622 6.10613 0.26718L5.68621 0.125993C4.70512 -0.20045 3.30593 0.12969 2.57612 0.859506L0.584601 2.85284C0.228818 3.20675 0.001429 4.21899 0.001429 4.22269C-0.0682254 10.5456 2.41105 16.6374 6.8836 21.11C11.3452 25.5715 17.4141 28.0472 23.7187 27.994C23.7516 27.994 24.7932 27.7703 25.149 27.4163L27.1405 25.4248C27.8703 24.695 28.2004 23.2959 27.874 22.3148Z" fill="#A7997B"/>
</svg>
