<svg xmlns="http://www.w3.org/2000/svg" xmlns:xlink="http://www.w3.org/1999/xlink" xmlns:xodm="http://www.corel.com/coreldraw/odm/2003" xml:space="preserve" width="2225px" height="243px" style="shape-rendering:geometricPrecision; text-rendering:geometricPrecision; image-rendering:optimizeQuality; fill-rule:evenodd; clip-rule:evenodd" viewBox="0 0 2228840 243740">
 <defs>
  <style type="text/css">
   <![CDATA[
    .fil0 {fill:#A7997B;fill-rule:nonzero}
   ]]>
  </style>
 </defs>
 <g id="&#x421;&#x43B;&#x43E;&#x439;_x0020_1">
  <metadata id="CorelCorpID_0Corel-Layer"></metadata>
  <path class="fil0" d="M1610590 49770l-1560 -20c-4050,170 -7970,640 -11810,1260 -46680,6740 -81050,40050 -79180,95680l0 0 0 30 0 20 0 10c-1870,55640 32500,88940 79180,95690 3840,610 7760,1080 11810,1240l1560 -10c59850,2060 89380,-42140 89420,-96890l0 -30 0 -30 0 -30 0 -30c-40,-54760 -29570,-98950 -89420,-96890zm83540 96510l0 0 10 440 -10 450c-10,3170 -170,6240 -380,9270 -3890,48260 -36210,85820 -82860,83210 -1430,-80 -2780,-280 -4150,-420 -11690,-1660 -21830,-5330 -30300,-10960 -19310,-14200 -28920,-41460 -30960,-81550 2040,-40080 11650,-67350 30960,-81540 8470,-5630 18610,-9300 30300,-10960 1370,-150 2720,-340 4150,-420 46650,-2610 78970,34940 82860,83200 210,3030 370,6100 380,9280zm-1300380 -89210l0 0 76000 -270 0 -5930 -103430 0 -280 191690 27710 0 0 -124750 84440 0 0 -6460 -84440 0 0 -54280zm-213300 185490l0 0 6090 0 28870 -66180 73800 0 28600 66180 28450 0 -84710 -193300 -81100 193300zm37220 -72110l0 0 34370 -81490 34630 81490 -69000 0zm812590 72110l0 0 6090 0 28870 -66180 73800 0 28590 66180 28460 0 -84710 -193300 -81100 193300zm37220 -72110l0 0 34370 -81490 34630 81490 -69000 0zm832640 72110l0 0 6090 0 28870 -66180 73800 0 28590 66180 28460 0 -84710 -193300 -81100 193300zm37220 -72110l0 0 34360 -81490 34640 81490 -69000 0zm-1821390 64270l0 0c-37620,9010 -75390,-14320 -84360,-52100 -6440,-28840 -3440,-59000 8570,-85990 4860,-11730 12950,-21840 23320,-29130 30140,-21150 71640,-13770 92710,16500l3430 -2310c-17160,-22230 -44410,-34160 -72310,-31660 -36580,3160 -68020,27340 -80590,62000 -7100,19880 -8600,41340 -4370,62040l0 -10c5420,27400 24100,50270 49780,61000l-20 -20c17720,7980 37380,10540 56550,7390l10 0c27620,-4940 50550,-24240 60200,-50690l-3880 0c-8320,21550 -26650,37620 -49040,42980zm460460 -234720l0 0 -41410 37270 43490 -24850 -2080 -12420zm-52510 56510l0 0 75450 0 0 -5640 -101520 0 270 191680 104250 270 0 -6740 -78450 0 0 -118830 84550 0 1720 0 430 0 0 -5920 -86700 0 0 -54820zm312710 -1470l0 0 -2880 -3850 -92270 71800 -1120 -840 280 -71270 -26900 -290 0 191900 27980 0 0 -110310 25090 -19380 79760 130940 4200 -2800 -79310 -132840 65170 -53060zm457240 79860l0 0c-10990,-5140 -21720,-10840 -32140,-17070l-50 -30c-9160,-4770 -15730,-13390 -17940,-23540 -2020,-9790 1090,-19930 8240,-26850 12730,-11450 30380,-15540 46790,-10850l0 -4040c-6130,-2400 -12750,-3290 -19300,-2580 -5790,490 -11500,1710 -16990,3620 -19840,6540 -34010,24220 -36180,45140 -1430,11790 2480,23600 10650,32160l70 80c9120,7870 19070,14700 29680,20370l10 10c9930,5190 19590,10910 28940,17120 16220,11200 21180,33060 11420,50250 -5100,7690 -12750,13310 -21570,15880l0 0c-8200,2340 -16710,3350 -25220,3000l-20 0c-20280,-520 -38260,-13290 -45570,-32360 -970,-2390 -3560,-3670 -6040,-3010 6750,24120 28340,40960 53200,41500 15470,480 30770,-3370 44190,-11110l40 -30c11480,-7250 19890,-18550 23570,-31690 3720,-14810 820,-30500 -7910,-42970 -7250,-9890 -16820,-17800 -27870,-23000zm187040 -83760l0 0 0 76360 -129640 -76310 0 191360 7280 0 0 -157060 122360 73670 0 83400 6750 0 0 -191420 -570 0 -6180 0zm404880 83610l0 0c-1530,-14580 -6140,-28780 -13810,-41540 -4240,-7240 -9450,-13900 -15720,-19490 -10710,-9540 -23800,-15220 -37520,-18620l-600 -170c-5030,-1320 -10150,-2300 -15310,-2910 -11830,-1410 -23730,-2020 -35610,-1840 -3410,-50 -6830,-30 -10240,70 -8240,40 -16470,220 -24690,550l-150 -90c0,750 0,1500 0,2250l0 100 0 187210 0 90c0,760 0,1500 0,2250l150 -90c8220,340 16450,520 24690,550 3410,100 6830,110 10240,70 11880,190 23780,-420 35610,-1830 5160,-620 10280,-1600 15310,-2920l600 -170c13720,-3400 26810,-9060 37520,-18620 6270,-5590 11480,-12230 15720,-19490 7670,-12750 12280,-26950 13810,-41540 400,-3720 590,-7460 590,-11210l-30 -700 30 -700c0,-3740 -190,-7490 -590,-11210zm-5690 11910l0 0 0 40c0,1200 -20,2410 -50,3610l-10 240c-100,2920 -300,5850 -650,8760 -2100,17130 -8670,34070 -19540,47570 -4120,5110 -8800,9380 -13900,12960 -21550,15350 -50760,18670 -77000,18360l-410 20c-1210,20 -2420,30 -3630,0 -2710,60 -4360,-40 -4380,-370l-90 -550 0 -2240c-120,-2850 -180,-5700 -210,-8560 -60,-8510 210,-17070 210,-25530l0 -5270 0 -80 0 -48720 0 -480 0 -48720 0 -60 0 -5290c0,-8460 -270,-17010 -210,-25530 30,-2850 90,-5710 210,-8550l0 -2240 90 -550c20,-340 1670,-430 4380,-380 1210,-20 2420,-10 3630,10l410 10c26250,-300 55450,3020 77010,18370 5090,3580 9770,7840 13890,12950 10870,13510 17440,30450 19540,47570 350,2920 550,5840 650,8770l10 240c30,1200 50,2400 50,3600l0 40zm-877420 -40870l0 0c-23110,-70360 -131930,-54570 -131930,-54570l0 191310 26350 0 0 -44810 65960 0 19190 44840 28440 0 -25520 -58780c0,0 33330,-29820 17510,-77990zm-40770 87470l0 0 -64840 0 0 -136640c0,0 90220,-7770 103450,60120 10980,56430 -38610,76520 -38610,76520zm1241430 -9490l0 0c0,0 33330,-29810 17500,-77980 -23100,-70360 -131920,-54570 -131920,-54570l0 191300 26340 0 0 -44800 65960 0 19200 44840 28440 0 -25520 -58790zm-23260 9480l0 0 -64840 0 0 -136630c0,0 90220,-7770 103440,60120 10990,56420 -38600,76510 -38600,76510z"></path>
 </g>
</svg>