<svg width="334" height="228" viewBox="0 0 334 228" fill="none" xmlns="http://www.w3.org/2000/svg">
<path d="M233.333 9.48148C229.926 11.7037 227.111 15.2593 225.037 18.8148C224.148 18.3704 223.259 17.9259 222.519 17.6296C220.741 16.8889 219.407 16.7407 218.37 17.9259C217.333 19.1111 216.889 21.9259 217.63 24.8889C218.222 27.1111 219.407 29.3333 221.333 30.963C216.296 38.2222 209.037 42.0741 203.111 40C196.148 37.6296 193.037 28.2963 195.852 17.9259C191.852 28 182.963 34.3704 176 31.8518C172.889 30.8148 170.37 28 168.741 24.4444C171.259 23.8518 173.481 22.0741 174.963 20.1481C176.889 17.7778 177.63 14.963 177.185 13.4815C176.741 11.8519 175.259 11.5556 173.481 11.5556C172.593 11.5556 171.704 11.5556 170.667 11.7037C170.222 7.55555 168.889 3.25926 166.815 0C164.741 3.40741 163.407 7.55555 162.963 11.7037C161.926 11.7037 161.037 11.5556 160.148 11.5556C158.222 11.5556 156.889 11.8519 156.444 13.4815C156 14.963 156.741 17.7778 158.667 20.1481C160.148 22.0741 162.37 23.8518 164.889 24.4444C163.259 28.1481 160.593 30.8148 157.63 31.8518C150.37 34.3704 141.481 28 137.63 17.9259C140.296 28.2963 137.333 37.6296 130.37 40C124.296 42.0741 117.037 38.2222 112.148 30.963C114.074 29.4815 115.259 27.1111 115.852 24.8889C116.593 21.9259 116.148 19.1111 115.111 17.9259C114.074 16.5926 112.593 16.8889 110.963 17.6296C110.222 17.9259 109.333 18.3704 108.444 18.8148C106.222 15.1111 103.407 11.7037 100 9.48148L117.926 56C118.963 55.7037 141.778 47.5556 166.519 47.5556C191.259 47.5556 214.222 55.7037 215.259 56L233.333 9.48148Z" fill="url(#paint0_linear_199_10)"/>
<path d="M212.593 63.5556C212.444 63.4074 189.926 55.4074 166.667 55.4074C143.407 55.4074 120.889 63.4074 120.741 63.4074L118.963 58.3704C119.852 58.0741 142.37 50.0741 166.667 50.0741C190.963 50.0741 213.481 58.0741 214.518 58.3704L212.593 63.5556Z" fill="url(#paint1_linear_199_10)"/>
<path d="M15.2422 156.003C15.5144 156.003 15.6959 156.184 15.6959 156.456C15.6959 156.728 15.5144 156.91 15.2422 156.91H0.453638C0.181455 156.91 0 156.728 0 156.456C0 156.184 0.181455 156.003 0.453638 156.003H3.08474C4.2642 156.003 4.99002 155.095 4.99002 154.097V99.9329C4.99002 98.9349 4.2642 98.0276 3.08474 98.0276H0.453638C0.181455 98.0276 0 97.8461 0 97.574C0 97.3018 0.181455 97.1203 0.453638 97.1203H15.2422C15.5144 97.1203 15.6959 97.3018 15.6959 97.574C15.6959 97.8461 15.5144 98.0276 15.2422 98.0276H12.6111C11.4317 98.0276 10.7059 98.9349 10.7059 99.9329V154.097C10.7059 155.095 11.4317 156.003 12.6111 156.003H15.2422ZM47.9949 156.003C48.2671 156.003 48.4486 156.184 48.4486 156.456C48.4486 156.728 48.2671 156.91 47.9949 156.91H31.9361C31.6639 156.91 31.4825 156.728 31.4825 156.456C31.4825 156.184 31.6639 156.003 31.9361 156.003H34.1136C35.9281 156.003 36.2003 154.914 35.3838 153.916L13.0648 127.605L39.8294 99.9329C40.5553 99.2071 40.646 98.0276 38.8314 98.0276H33.66C33.3878 98.0276 33.2063 97.8461 33.2063 97.574C33.2063 97.3018 33.3878 97.1203 33.66 97.1203H47.7227C47.9949 97.1203 48.1764 97.3018 48.1764 97.574C48.1764 97.8461 47.9949 98.0276 47.7227 98.0276H46.7247C43.7307 98.0276 42.4605 98.572 41.1903 99.9329L17.5104 124.429L42.5513 153.916C43.64 155.277 44.7287 156.003 46.634 156.003H47.9949ZM80.2032 96.6667C96.8064 96.6667 106.061 109.278 106.061 126.607C106.061 143.936 96.8064 157.363 80.2032 157.363C63.6001 157.363 54.3459 143.936 54.3459 126.607C54.3459 109.278 63.6001 96.6667 80.2032 96.6667ZM80.2032 156.275C94.8104 156.275 100.163 141.849 100.163 126.607C100.163 111.365 94.8104 97.7554 80.2032 97.7554C65.5961 97.7554 60.2431 111.365 60.2431 126.607C60.2431 141.849 65.5961 156.275 80.2032 156.275ZM159.681 153.281C159.953 153.281 160.134 153.462 160.134 153.734C160.134 154.46 157.14 157.363 153.148 157.363C137.271 157.363 154.146 127.514 128.38 127.514H125.295V154.097C125.295 155.095 126.021 156.003 127.2 156.003H129.831C130.103 156.003 130.285 156.184 130.285 156.456C130.285 156.728 130.103 156.91 129.831 156.91H115.043C114.77 156.91 114.589 156.728 114.589 156.456C114.589 156.184 114.77 156.003 115.043 156.003H117.674C118.853 156.003 119.579 155.095 119.579 154.097V99.9329C119.579 98.9349 118.853 98.0276 117.674 98.0276H115.043C114.77 98.0276 114.589 97.8461 114.589 97.574C114.589 97.3018 114.77 97.1203 115.043 97.1203H132.281C143.35 97.1203 151.606 101.566 151.606 111.183C151.606 119.893 144.801 125.79 133.37 127.06C157.685 130.054 145.89 155.64 155.054 155.64C158.048 155.64 158.955 153.281 159.681 153.281ZM125.295 126.607H129.922C141.717 126.607 145.709 118.351 145.709 111.183C145.709 102.655 141.717 98.0276 131.283 98.0276H127.2C126.021 98.0276 125.295 98.9349 125.295 99.9329V126.607ZM191.435 96.6667C208.038 96.6667 217.293 109.278 217.293 126.607C217.293 143.936 208.038 157.363 191.435 157.363C174.832 157.363 165.578 143.936 165.578 126.607C165.578 109.278 174.832 96.6667 191.435 96.6667ZM191.435 156.275C206.042 156.275 211.395 141.849 211.395 126.607C211.395 111.365 206.042 97.7554 191.435 97.7554C176.828 97.7554 171.475 111.365 171.475 126.607C171.475 141.849 176.828 156.275 191.435 156.275ZM279.078 156.003C279.35 156.003 279.532 156.184 279.532 156.456C279.532 156.728 279.35 156.91 279.078 156.91H264.29C264.017 156.91 263.836 156.728 263.836 156.456C263.836 156.184 264.017 156.003 264.29 156.003H266.921C268.1 156.003 268.826 155.095 268.826 154.097V112.544C268.826 103.108 265.288 97.9369 257.394 97.9369C244.965 97.9369 236.527 109.641 236.527 124.429V154.097C236.527 155.095 237.253 156.003 238.432 156.003H241.063C241.336 156.003 241.517 156.184 241.517 156.456C241.517 156.728 241.336 156.91 241.063 156.91H226.275C226.003 156.91 225.821 156.728 225.821 156.456C225.821 156.184 226.003 156.003 226.275 156.003H228.906C230.085 156.003 230.811 155.095 230.811 154.097V99.9329C230.811 98.9349 230.085 98.0276 228.906 98.0276H226.275C226.003 98.0276 225.821 97.8461 225.821 97.574C225.821 97.3018 226.003 97.1203 226.275 97.1203H236.345V116.972C238.799 104.874 247.268 96.6667 258.664 96.6667C267.919 96.6667 274.542 100.749 274.542 113.905V154.097C274.542 155.095 275.268 156.003 276.447 156.003H279.078ZM332.88 153.19C333.061 153.19 333.333 153.371 333.333 153.734C333.333 154.823 330.793 157.363 326.982 157.363C323.625 157.363 320.722 155.367 320.722 150.831V142.756C319.089 149.742 313.464 157.363 303.847 157.363C293.141 157.363 287.153 150.831 287.153 142.756C287.153 134.5 293.867 128.603 306.115 128.058L320.722 127.524V110.004C320.722 103.471 316.912 97.7555 305.752 97.7555C298.04 97.7555 291.236 102.201 291.236 105.921C291.236 108.098 294.502 108.552 294.502 111.183C294.502 112.998 293.05 114.177 291.508 114.177C289.875 114.177 288.151 112.816 288.151 109.459C288.151 102.383 296.316 96.6667 306.478 96.6667C320.722 96.6667 326.438 102.927 326.438 111.274V152.192C326.438 154.642 327.617 155.549 329.069 155.549C330.249 155.549 331.337 155.005 332.245 153.553C332.426 153.281 332.607 153.19 332.88 153.19ZM305.389 155.73C314.281 155.73 320.722 146.748 320.722 136.315V128.431L306.115 128.966C298.131 129.329 293.141 135.317 293.141 141.668C293.141 150.831 298.494 155.73 305.389 155.73Z" fill="url(#paint2_linear_199_10)"/>
<path d="M55.0444 227.353L50.8009 227.353L43.054 212.402H36.6394V227.353H33.3334V190.345H41.8204C45.2086 190.345 47.8896 191.316 49.8633 193.257C51.8371 195.197 52.8239 197.862 52.8239 201.25C52.8239 202.303 52.6841 203.372 52.4045 204.457C52.1249 205.543 51.7219 206.563 51.1956 207.517C50.6692 208.471 50.0195 209.334 49.2465 210.107C48.4734 210.88 47.5935 211.481 46.6066 211.908L55.0444 227.353ZM49.3206 201.003C49.3206 199.852 49.1232 198.816 48.7285 197.895C48.3337 196.974 47.7909 196.193 47.1001 195.551C46.4093 194.91 45.5869 194.416 44.633 194.071C43.679 193.725 42.6428 193.553 41.5243 193.553H36.6394V208.997H41.8204C44.4521 208.997 46.36 208.29 47.5442 206.875C48.7285 205.461 49.3206 203.503 49.3206 201.003ZM81.4886 227.353H62.9849V190.345H81.1432V194.095H66.3896V206.826H81.0445V210.033H66.3896V223.603H81.4886V227.353ZM107.291 217.78C107.291 220.807 106.502 223.233 104.923 225.058C103.344 226.884 100.992 227.797 97.8671 227.797C96.025 227.797 94.4706 227.534 93.2042 227.007C91.9378 226.481 90.9097 225.724 90.1202 224.738C89.3307 223.751 88.7633 222.566 88.4179 221.185C88.0725 219.803 87.9162 218.257 87.9491 216.547L87.9985 215.264H91.7979C91.7979 216.316 91.8308 217.394 91.8966 218.496C91.9624 219.598 92.1762 220.601 92.538 221.506C92.8998 222.41 93.459 223.15 94.2156 223.726C94.9722 224.302 96.0578 224.59 97.4723 224.59C99.6434 224.59 101.239 224.014 102.259 222.863C103.278 221.711 103.788 220.099 103.788 218.027C103.788 216.382 103.393 215.083 102.604 214.129C101.814 213.175 100.828 212.369 99.6434 211.711C98.4591 211.053 97.1845 210.461 95.8193 209.935C94.4541 209.408 93.1794 208.75 91.9952 207.961C90.8109 207.171 89.8241 206.16 89.0346 204.926C88.2451 203.693 87.8503 202.056 87.8503 200.017C87.8503 196.727 88.6974 194.235 90.3915 192.541C92.0856 190.847 94.5776 190 97.867 190C99.4131 190 100.754 190.247 101.888 190.74C103.023 191.234 103.969 191.924 104.726 192.813C105.482 193.701 106.042 194.753 106.403 195.971C106.765 197.188 106.946 198.536 106.946 200.017V203.125H103.344C103.344 202.04 103.336 200.913 103.319 199.745C103.303 198.577 103.13 197.508 102.801 196.538C102.472 195.568 101.921 194.77 101.148 194.145C100.375 193.52 99.2485 193.207 97.7682 193.207C95.63 193.207 94.0182 193.75 92.9326 194.836C91.8471 195.921 91.3372 197.517 91.403 199.622V200.115C91.4359 201.135 91.6086 201.982 91.9211 202.656C92.2336 203.331 92.6612 203.907 93.204 204.384C93.7468 204.861 94.38 205.28 95.1037 205.642C95.8274 206.004 96.6169 206.382 97.4722 206.777C98.7222 207.336 99.9393 207.928 101.124 208.553C102.308 209.178 103.352 209.91 104.257 210.749C105.161 211.588 105.893 212.575 106.453 213.709C107.012 214.844 107.291 216.201 107.291 217.78ZM132.206 193.947H124.558V227.353H120.906V193.947H113.258V190.345H132.206V193.947ZM157.121 227.353H153.667L151.051 216.744H140.295L137.679 227.353H134.324L144.341 190.345H147.153L157.121 227.353ZM150.213 213.438L145.821 195.132L141.133 213.438H150.213ZM183.121 217.78C183.121 221.07 182.323 223.562 180.728 225.256C179.132 226.95 176.673 227.797 173.351 227.797C170.193 227.797 167.816 226.892 166.221 225.083C164.625 223.274 163.828 220.839 163.828 217.78V190.345H167.331V217.632C167.331 218.553 167.454 219.417 167.701 220.223C167.948 221.029 168.318 221.736 168.811 222.344C169.305 222.953 169.921 223.43 170.662 223.775C171.402 224.121 172.265 224.293 173.252 224.293C175.654 224.293 177.323 223.627 178.26 222.295C179.198 220.963 179.667 219.178 179.667 216.941V190.345H183.121L183.121 217.78ZM214.697 227.353L210.453 227.353L202.706 212.402H196.292V227.353H192.986V190.345H201.473C204.861 190.345 207.542 191.316 209.516 193.257C211.489 195.197 212.476 197.862 212.476 201.25C212.476 202.303 212.337 203.372 212.057 204.457C211.777 205.543 211.374 206.563 210.848 207.517C210.322 208.471 209.672 209.334 208.899 210.107C208.126 210.88 207.246 211.481 206.259 211.908L214.697 227.353ZM208.973 201.003C208.973 199.852 208.776 198.816 208.381 197.895C207.986 196.974 207.443 196.193 206.753 195.551C206.062 194.91 205.239 194.416 204.285 194.071C203.331 193.725 202.295 193.553 201.177 193.553H196.292V208.997H201.473C204.104 208.997 206.012 208.29 207.197 206.875C208.381 205.461 208.973 203.503 208.973 201.003ZM244.398 227.353H240.944L238.328 216.744H227.572L224.956 227.353H221.601L231.618 190.345H234.43L244.398 227.353ZM237.49 213.438L233.098 195.132L228.41 213.438H237.49ZM272.668 227.353H268.819L255.99 198.24V227.353H252.437V190.345H255.99L268.868 218.224L269.164 190.345H272.668V227.353ZM300 193.947H292.352V227.353H288.7V193.947H281.052V190.345H300V193.947Z" fill="url(#paint3_linear_199_10)"/>
<defs>
<linearGradient id="paint0_linear_199_10" x1="100" y1="0" x2="233.333" y2="0" gradientUnits="userSpaceOnUse">
<stop stop-color="#8F5E25"/>
<stop offset="0.5" stop-color="#FBF4A1"/>
<stop offset="1" stop-color="#8F5E25"/>
</linearGradient>
<linearGradient id="paint1_linear_199_10" x1="118.963" y1="50.0741" x2="214.518" y2="50.0741" gradientUnits="userSpaceOnUse">
<stop stop-color="#8F5E25"/>
<stop offset="0.5" stop-color="#FBF4A1"/>
<stop offset="1" stop-color="#8F5E25"/>
</linearGradient>
<linearGradient id="paint2_linear_199_10" x1="0" y1="96.6667" x2="333.333" y2="96.6667" gradientUnits="userSpaceOnUse">
<stop stop-color="#8F5E25"/>
<stop offset="0.5" stop-color="#FBF4A1"/>
<stop offset="1" stop-color="#8F5E25"/>
</linearGradient>
<linearGradient id="paint3_linear_199_10" x1="33.3334" y1="190" x2="300" y2="190" gradientUnits="userSpaceOnUse">
<stop stop-color="#8F5E25"/>
<stop offset="0.5" stop-color="#FBF4A1"/>
<stop offset="1" stop-color="#8F5E25"/>
</linearGradient>
</defs>
</svg>
