<svg width="321" height="304" viewBox="-1 0 271 256.5" class="css-1j8o68f" xmlns="http://www.w3.org/2000/svg">
    <defs id="SvgjsDefs5817">
        <linearGradient id="SvgjsLinearGradient5826">
            <stop id="SvgjsStop5827" stop-color="#8f5e25" offset="0"/>
            <stop id="SvgjsStop5828" stop-color="#fbf4a1" offset="0.5"/>
            <stop id="SvgjsStop5829" stop-color="#8f5e25" offset="1"/>
        </linearGradient>
        <linearGradient id="SvgjsLinearGradient5830">
            <stop id="SvgjsStop5831" stop-color="#8f5e25" offset="0"/>
            <stop id="SvgjsStop5832" stop-color="#fbf4a1" offset="0.5"/>
            <stop id="SvgjsStop5833" stop-color="#8f5e25" offset="1"/>
        </linearGradient>
        <linearGradient id="SvgjsLinearGradient5834">
            <stop id="SvgjsStop5835" stop-color="#8f5e25" offset="0"/>
            <stop id="SvgjsStop5836" stop-color="#fbf4a1" offset="0.5"/>
            <stop id="SvgjsStop5837" stop-color="#8f5e25" offset="1"/>
        </linearGradient>
    </defs>
    <g id="SvgjsG5819" featurekey="symbolFeature-0" transform="matrix(3,0,0,3,-16,-44.79998970031738)"
       fill="url(#SvgjsLinearGradient5826)">
        <path xmlns="http://www.w3.org/2000/svg"
              d="M95,35c-2.3,1.5-4.2,3.9-5.6,6.3c-0.6-0.3-1.2-0.6-1.7-0.8c-1.2-0.5-2.1-0.6-2.8,0.2c-0.7,0.8-1,2.7-0.5,4.7  c0.4,1.5,1.2,3,2.5,4.1c-3.4,4.9-8.3,7.5-12.3,6.1c-4.7-1.6-6.8-7.9-4.9-14.9c0,0,0,0,0,0C67,47.5,61,51.8,56.3,50.1  c-2.1-0.7-3.8-2.6-4.9-5c1.7-0.4,3.2-1.6,4.2-2.9c1.3-1.6,1.8-3.5,1.5-4.5c-0.3-1.1-1.3-1.3-2.5-1.3c-0.6,0-1.2,0-1.9,0.1  c-0.3-2.8-1.2-5.7-2.6-7.9c-1.4,2.3-2.3,5.1-2.6,7.9c-0.7,0-1.3-0.1-1.9-0.1c-1.3,0-2.2,0.2-2.5,1.3c-0.3,1,0.2,2.9,1.5,4.5  c1,1.3,2.5,2.5,4.2,2.9c-1.1,2.5-2.9,4.3-4.9,5C39,51.8,33,47.5,30.4,40.7c0,0,0,0,0,0c1.8,7-0.2,13.3-4.9,14.9  c-4.1,1.4-9-1.2-12.3-6.1c1.3-1,2.1-2.6,2.5-4.1c0.5-2,0.2-3.9-0.5-4.7c-0.7-0.9-1.7-0.7-2.8-0.2c-0.5,0.2-1.1,0.5-1.7,0.8  C9.2,38.8,7.3,36.5,5,35l12.1,31.4c0.7-0.2,16.1-5.7,32.8-5.7c16.7,0,32.2,5.5,32.9,5.7L95,35z"/>
        <path xmlns="http://www.w3.org/2000/svg"
              d="M81,71.5C80.9,71.4,65.7,66,50,66c-15.7,0-30.9,5.4-31,5.4l-1.2-3.4c0.6-0.2,15.8-5.6,32.2-5.6c16.4,0,31.6,5.4,32.3,5.6  L81,71.5z"/>
    </g>
</svg>