<svg width="334" height="228" viewBox="0 0 334 228" fill="none" xmlns="http://www.w3.org/2000/svg">
<path d="M233.333 9.48148C229.926 11.7037 227.111 15.2593 225.037 18.8148C224.148 18.3704 223.259 17.9259 222.519 17.6296C220.741 16.8889 219.407 16.7407 218.37 17.9259C217.333 19.1111 216.889 21.9259 217.63 24.8889C218.222 27.1111 219.407 29.3333 221.333 30.963C216.296 38.2222 209.037 42.0741 203.111 40C196.148 37.6296 193.037 28.2963 195.852 17.9259C191.852 28 182.963 34.3704 176 31.8518C172.889 30.8148 170.37 28 168.741 24.4444C171.259 23.8518 173.481 22.0741 174.963 20.1481C176.889 17.7778 177.63 14.963 177.185 13.4815C176.741 11.8519 175.259 11.5556 173.481 11.5556C172.593 11.5556 171.704 11.5556 170.667 11.7037C170.222 7.55555 168.889 3.25926 166.815 0C164.741 3.40741 163.407 7.55555 162.963 11.7037C161.926 11.7037 161.037 11.5556 160.148 11.5556C158.222 11.5556 156.889 11.8519 156.444 13.4815C156 14.963 156.741 17.7778 158.667 20.1481C160.148 22.0741 162.37 23.8518 164.889 24.4444C163.259 28.1481 160.593 30.8148 157.63 31.8518C150.37 34.3704 141.481 28 137.63 17.9259C140.296 28.2963 137.333 37.6296 130.37 40C124.296 42.0741 117.037 38.2222 112.148 30.963C114.074 29.4815 115.259 27.1111 115.852 24.8889C116.593 21.9259 116.148 19.1111 115.111 17.9259C114.074 16.5926 112.593 16.8889 110.963 17.6296C110.222 17.9259 109.333 18.3704 108.444 18.8148C106.222 15.1111 103.407 11.7037 100 9.48148L117.926 56C118.963 55.7037 141.778 47.5556 166.519 47.5556C191.259 47.5556 214.222 55.7037 215.259 56L233.333 9.48148Z" fill="url(#paint0_linear_207_8)"/>
<path d="M212.593 63.5556C212.444 63.4074 189.926 55.4074 166.667 55.4074C143.407 55.4074 120.889 63.4074 120.741 63.4074L118.963 58.3704C119.852 58.0741 142.37 50.0741 166.667 50.0741C190.963 50.0741 213.481 58.0741 214.518 58.3704L212.593 63.5556Z" fill="url(#paint1_linear_207_8)"/>
<path d="M15.2422 156.336C15.5144 156.336 15.6959 156.517 15.6959 156.79C15.6959 157.062 15.5144 157.243 15.2422 157.243H0.453638C0.181455 157.243 0 157.062 0 156.79C0 156.517 0.181455 156.336 0.453638 156.336H3.08474C4.2642 156.336 4.99002 155.429 4.99002 154.431V100.266C4.99002 99.2682 4.2642 98.3609 3.08474 98.3609H0.453638C0.181455 98.3609 0 98.1795 0 97.9073C0 97.6351 0.181455 97.4536 0.453638 97.4536H15.2422C15.5144 97.4536 15.6959 97.6351 15.6959 97.9073C15.6959 98.1795 15.5144 98.3609 15.2422 98.3609H12.6111C11.4317 98.3609 10.7059 99.2682 10.7059 100.266V154.431C10.7059 155.429 11.4317 156.336 12.6111 156.336H15.2422ZM47.9949 156.336C48.2671 156.336 48.4486 156.517 48.4486 156.79C48.4486 157.062 48.2671 157.243 47.9949 157.243H31.9361C31.6639 157.243 31.4825 157.062 31.4825 156.79C31.4825 156.517 31.6639 156.336 31.9361 156.336H34.1136C35.9281 156.336 36.2003 155.247 35.3838 154.249L13.0648 127.938L39.8294 100.266C40.5553 99.5404 40.646 98.3609 38.8314 98.3609H33.66C33.3878 98.3609 33.2063 98.1795 33.2063 97.9073C33.2063 97.6351 33.3878 97.4536 33.66 97.4536H47.7227C47.9949 97.4536 48.1764 97.6351 48.1764 97.9073C48.1764 98.1795 47.9949 98.3609 47.7227 98.3609H46.7247C43.7307 98.3609 42.4605 98.9053 41.1903 100.266L17.5104 124.763L42.5513 154.249C43.64 155.61 44.7287 156.336 46.634 156.336H47.9949ZM80.2032 97C96.8064 97 106.061 109.611 106.061 126.94C106.061 144.269 96.8064 157.697 80.2032 157.697C63.6001 157.697 54.3459 144.269 54.3459 126.94C54.3459 109.611 63.6001 97 80.2032 97ZM80.2032 156.608C94.8104 156.608 100.163 142.182 100.163 126.94C100.163 111.698 94.8104 98.0887 80.2032 98.0887C65.5961 98.0887 60.2431 111.698 60.2431 126.94C60.2431 142.182 65.5961 156.608 80.2032 156.608ZM135.5 127C126.925 127.306 135.5 126.274 135.5 127C135.5 127.726 130.207 127.432 130 127C134.5 126.5 139 127.5 128.5 127.847H125.295V154.431C125.295 155.429 126.021 156.336 127.2 156.336H129.831C130.103 156.336 130.285 156.517 130.285 156.79C130.285 157.062 130.103 157.243 129.831 157.243H115.043C114.77 157.243 114.589 157.062 114.589 156.79C114.589 156.517 114.77 156.336 115.043 156.336H117.674C118.853 156.336 119.579 155.429 119.579 154.431V100.266C119.579 99.2682 118.853 98.3609 117.674 98.3609H115.043C114.77 98.3609 114.589 98.1795 114.589 97.9073C114.589 97.6351 114.77 97.4536 115.043 97.4536H132.281C143.35 97.4536 151.606 101.899 151.606 111.516C151.606 120.226 145.432 126.155 134 127.425C139.13 126.05 124.393 127.306 133.557 127.306C133.413 126.884 139.5 124.5 135.5 127ZM125.295 126.94H129.922C141.717 126.94 145.709 118.684 145.709 111.516C145.709 102.988 141.717 98.3609 131.283 98.3609H127.2C126.021 98.3609 125.295 99.2682 125.295 100.266V126.94ZM191.435 97C208.038 97 217.293 109.611 217.293 126.94C217.293 144.269 208.038 157.697 191.435 157.697C174.832 157.697 165.578 144.269 165.578 126.94C165.578 109.611 174.832 97 191.435 97ZM191.435 156.608C206.042 156.608 211.395 142.182 211.395 126.94C211.395 111.698 206.042 98.0887 191.435 98.0887C176.828 98.0887 171.475 111.698 171.475 126.94C171.475 142.182 176.828 156.608 191.435 156.608ZM279.078 156.336C279.35 156.336 279.532 156.517 279.532 156.79C279.532 157.062 279.35 157.243 279.078 157.243H264.29C264.017 157.243 263.836 157.062 263.836 156.79C263.836 156.517 264.017 156.336 264.29 156.336H266.921C268.1 156.336 268.826 155.429 268.826 154.431L269.209 112.815C269.209 103.379 270 97.885 270 108.5C270.674 142.5 292 122.237 236.527 128.5V154.431C236.527 155.429 237.253 156.336 238.432 156.336H241.063C241.336 156.336 241.517 156.517 241.517 156.79C241.517 157.062 241.336 157.243 241.063 157.243H226.275C226.003 157.243 225.821 157.062 225.821 156.79C225.821 156.517 226.003 156.336 226.275 156.336H228.906C230.085 156.336 230.811 155.429 230.811 154.431V100.266C230.811 99.2682 230.085 98.3609 228.906 98.3609H226.275C226.003 98.3609 225.821 98.1795 225.821 97.9073C225.821 97.6351 226.003 97.4536 226.275 97.4536H236.345L236.527 124C273.5 128.765 269.326 124.407 268.826 97.9073C275.5 99.3148 274.542 97 274.542 114.238V154.431C274.542 155.429 275.268 156.336 276.447 156.336H279.078ZM332.88 153.523C333.061 153.523 333.333 153.705 333.333 154.068C333.333 155.156 330.793 157.697 326.982 157.697C323.625 157.697 320.722 155.701 320.722 151.164V143.09C319.089 150.076 313.464 157.697 303.847 157.697C293.141 157.697 287.153 151.164 287.153 143.09C287.153 134.833 293.867 128.936 306.115 128.392L320.722 127.857V110.337C320.722 103.805 316.912 98.0888 305.752 98.0888C298.04 98.0888 291.236 102.534 291.236 106.254C291.236 108.432 294.502 108.885 294.502 111.516C294.502 113.331 293.05 114.51 291.508 114.51C289.875 114.51 288.151 113.15 288.151 109.793C288.151 102.716 296.316 97 306.478 97C320.722 97 326.438 103.26 326.438 111.607V152.525C326.438 154.975 327.617 155.882 329.069 155.882C330.249 155.882 331.337 155.338 332.245 153.886C332.426 153.614 332.607 153.523 332.88 153.523ZM305.389 156.064C314.281 156.064 320.722 147.082 320.722 136.648V128.765L306.115 129.299C298.131 129.662 293.141 135.65 293.141 142.001C293.141 151.164 298.494 156.064 305.389 156.064Z" fill="url(#paint2_linear_207_8)"/>
<defs>
<linearGradient id="paint0_linear_207_8" x1="263.8" y1="-16.4708" x2="76.5076" y2="35.4606" gradientUnits="userSpaceOnUse">
<stop stop-color="#C0A25D"/>
<stop stop-color="#8F5E25"/>
<stop offset="0.21226" stop-color="#FBF4A1"/>
<stop offset="0.317847" stop-color="#DBC87D"/>
<stop offset="0.499822" stop-color="#B18D4C"/>
<stop offset="0.589037" stop-color="#C7AC66"/>
<stop offset="0.704462" stop-color="#DBC77C"/>
<stop offset="1" stop-color="#8F5E25"/>
</linearGradient>
<linearGradient id="paint1_linear_207_8" x1="236.353" y1="46.1089" x2="150.382" y2="117.072" gradientUnits="userSpaceOnUse">
<stop stop-color="#C0A25D"/>
<stop stop-color="#8F5E25"/>
<stop offset="0.21226" stop-color="#FBF4A1"/>
<stop offset="0.317847" stop-color="#DBC87D"/>
<stop offset="0.499822" stop-color="#B18D4C"/>
<stop offset="0.589037" stop-color="#C7AC66"/>
<stop offset="0.704462" stop-color="#DBC77C"/>
<stop offset="1" stop-color="#8F5E25"/>
</linearGradient>
<linearGradient id="paint2_linear_207_8" x1="408" y1="80.9626" x2="50.1422" y2="309.83" gradientUnits="userSpaceOnUse">
<stop stop-color="#C0A25D"/>
<stop offset="0.0001" stop-color="#FBF4A1"/>
<stop offset="0.109375" stop-color="#DBC87D"/>
<stop offset="0.18375" stop-color="#8F5E25"/>
<stop offset="0.330878" stop-color="#B18D4C"/>
<stop offset="0.34184" stop-color="#8F5E25"/>
<stop offset="0.9999" stop-color="#C7AC66"/>
<stop offset="1" stop-color="#DBC77C"/>
</linearGradient>
<linearGradient id="paint3_linear_207_8" x1="360.933" y1="178.883" x2="120.117" y2="376.744" gradientUnits="userSpaceOnUse">
<stop stop-color="#C0A25D"/>
<stop offset="0.0001" stop-color="#FBF4A1"/>
<stop offset="0.109375" stop-color="#DBC87D"/>
<stop offset="0.203125" stop-color="#B18D4C"/>
<stop offset="0.270833" stop-color="#8F5E25"/>
<stop offset="0.375" stop-color="#8F5E25"/>
<stop offset="0.9999" stop-color="#C7AC66"/>
<stop offset="1" stop-color="#DBC77C"/>
</linearGradient>
</defs>
</svg>
