<svg width="350" height="300" viewBox="100 90 110 180" class="css-1j8o68f"  xmlns="http://www.w3.org/2000/svg">
    <defs id="SvgjsDefs5174">
        <linearGradient id="SvgjsLinearGradient5183">
            <stop id="SvgjsStop5184" stop-color="#8f5e25" offset="0"/>
            <stop id="SvgjsStop5185" stop-color="#fbf4a1" offset="0.5"/>
            <stop id="SvgjsStop5186" stop-color="#8f5e25" offset="1"/>
        </linearGradient>
        <linearGradient id="SvgjsLinearGradient5187">
            <stop id="SvgjsStop5188" stop-color="#8f5e25" offset="0"/>
            <stop id="SvgjsStop5189" stop-color="#fbf4a1" offset="0.5"/>
            <stop id="SvgjsStop5190" stop-color="#8f5e25" offset="1"/>
        </linearGradient>
        <linearGradient id="SvgjsLinearGradient5191">
            <stop id="SvgjsStop5192" stop-color="#8f5e25" offset="0"/>
            <stop id="SvgjsStop5193" stop-color="#fbf4a1" offset="0.5"/>
            <stop id="SvgjsStop5194" stop-color="#8f5e25" offset="1"/>
        </linearGradient>
        <linearGradient id="SvgjsLinearGradient5195">
            <stop id="SvgjsStop5196" stop-color="#8f5e25" offset="0"/>
            <stop id="SvgjsStop5197" stop-color="#fbf4a1" offset="0.5"/>
            <stop id="SvgjsStop5198" stop-color="#8f5e25" offset="1"/>
        </linearGradient>
    </defs>
    <g id="SvgjsG5176" featurekey="symbolFeature-0"
       transform="matrix(0.8888888888888888,0,0,0.8888888888888888,111.55555555555556,64.57778082953558)"
       fill="url(#SvgjsLinearGradient5187)">
        <path xmlns="http://www.w3.org/2000/svg"
              d="M95,35c-2.3,1.5-4.2,3.9-5.6,6.3c-0.6-0.3-1.2-0.6-1.7-0.8c-1.2-0.5-2.1-0.6-2.8,0.2c-0.7,0.8-1,2.7-0.5,4.7  c0.4,1.5,1.2,3,2.5,4.1c-3.4,4.9-8.3,7.5-12.3,6.1c-4.7-1.6-6.8-7.9-4.9-14.9c0,0,0,0,0,0C67,47.5,61,51.8,56.3,50.1  c-2.1-0.7-3.8-2.6-4.9-5c1.7-0.4,3.2-1.6,4.2-2.9c1.3-1.6,1.8-3.5,1.5-4.5c-0.3-1.1-1.3-1.3-2.5-1.3c-0.6,0-1.2,0-1.9,0.1  c-0.3-2.8-1.2-5.7-2.6-7.9c-1.4,2.3-2.3,5.1-2.6,7.9c-0.7,0-1.3-0.1-1.9-0.1c-1.3,0-2.2,0.2-2.5,1.3c-0.3,1,0.2,2.9,1.5,4.5  c1,1.3,2.5,2.5,4.2,2.9c-1.1,2.5-2.9,4.3-4.9,5C39,51.8,33,47.5,30.4,40.7c0,0,0,0,0,0c1.8,7-0.2,13.3-4.9,14.9  c-4.1,1.4-9-1.2-12.3-6.1c1.3-1,2.1-2.6,2.5-4.1c0.5-2,0.2-3.9-0.5-4.7c-0.7-0.9-1.7-0.7-2.8-0.2c-0.5,0.2-1.1,0.5-1.7,0.8  C9.2,38.8,7.3,36.5,5,35l12.1,31.4c0.7-0.2,16.1-5.7,32.8-5.7c16.7,0,32.2,5.5,32.9,5.7L95,35z"/>
        <path xmlns="http://www.w3.org/2000/svg"
              d="M81,71.5C80.9,71.4,65.7,66,50,66c-15.7,0-30.9,5.4-31,5.4l-1.2-3.4c0.6-0.2,15.8-5.6,32.2-5.6c16.4,0,31.6,5.4,32.3,5.6  L81,71.5z"/>
    </g>
    <g id="SvgjsG5177" featurekey="nameFeature-0"
       transform="matrix(1.3609146136969859,0,0,1.3609146136969859,54.14915643037139,129.70930946084434)"
       fill="url(#SvgjsLinearGradient5191)">
        <path d="M8.08 39.6 c0.12 0 0.2 0.08 0.2 0.2 s-0.08 0.2 -0.2 0.2 l-6.52 0 c-0.12 0 -0.2 -0.08 -0.2 -0.2 s0.08 -0.2 0.2 -0.2 l1.16 0 c0.52 0 0.84 -0.4 0.84 -0.84 l0 -23.88 c0 -0.44 -0.32 -0.84 -0.84 -0.84 l-1.16 0 c-0.12 0 -0.2 -0.08 -0.2 -0.2 s0.08 -0.2 0.2 -0.2 l6.52 0 c0.12 0 0.2 0.08 0.2 0.2 s-0.08 0.2 -0.2 0.2 l-1.16 0 c-0.52 0 -0.84 0.4 -0.84 0.84 l0 23.88 c0 0.44 0.32 0.84 0.84 0.84 l1.16 0 z M22.52 39.6 c0.12 0 0.2 0.08 0.2 0.2 s-0.08 0.2 -0.2 0.2 l-7.08 0 c-0.12 0 -0.2 -0.08 -0.2 -0.2 s0.08 -0.2 0.2 -0.2 l0.96 0 c0.8 0 0.92 -0.48 0.56 -0.92 l-9.84 -11.6 l11.8 -12.2 c0.32 -0.32 0.36 -0.84 -0.44 -0.84 l-2.28 0 c-0.12 0 -0.2 -0.08 -0.2 -0.2 s0.08 -0.2 0.2 -0.2 l6.2 0 c0.12 0 0.2 0.08 0.2 0.2 s-0.08 0.2 -0.2 0.2 l-0.44 0 c-1.32 0 -1.88 0.24 -2.44 0.84 l-10.44 10.8 l11.04 13 c0.48 0.6 0.96 0.92 1.8 0.92 l0.6 0 z M36.72 13.440000000000001 c7.32 0 11.4 5.56 11.4 13.2 s-4.08 13.56 -11.4 13.56 s-11.4 -5.92 -11.4 -13.56 s4.08 -13.2 11.4 -13.2 z M36.72 39.72 c6.44 0 8.8 -6.36 8.8 -13.08 s-2.36 -12.72 -8.8 -12.72 s-8.8 6 -8.8 12.72 s2.36 13.08 8.8 13.08 z M71.76 38.4 c0.12 0 0.2 0.08 0.2 0.2 c0 0.32 -1.32 1.6 -3.08 1.6 c-7 0 0.44 -13.16 -10.92 -13.16 l-1.36 0 l0 11.72 c0 0.44 0.32 0.84 0.84 0.84 l1.16 0 c0.12 0 0.2 0.08 0.2 0.2 s-0.08 0.2 -0.2 0.2 l-6.52 0 c-0.12 0 -0.2 -0.08 -0.2 -0.2 s0.08 -0.2 0.2 -0.2 l1.16 0 c0.52 0 0.84 -0.4 0.84 -0.84 l0 -23.88 c0 -0.44 -0.32 -0.84 -0.84 -0.84 l-1.16 0 c-0.12 0 -0.2 -0.08 -0.2 -0.2 s0.08 -0.2 0.2 -0.2 l7.6 0 c4.88 0 8.52 1.96 8.52 6.2 c0 3.84 -3 6.44 -8.04 7 c10.72 1.32 5.52 12.6 9.56 12.6 c1.32 0 1.72 -1.04 2.04 -1.04 z M56.6 26.64 l2.04 0 c5.2 0 6.96 -3.64 6.96 -6.8 c0 -3.76 -1.76 -5.8 -6.36 -5.8 l-1.8 0 c-0.52 0 -0.84 0.4 -0.84 0.84 l0 11.76 z M85.76 13.440000000000001 c7.32 0 11.4 5.56 11.4 13.2 s-4.08 13.56 -11.4 13.56 s-11.4 -5.92 -11.4 -13.56 s4.08 -13.2 11.4 -13.2 z M85.76 39.72 c6.44 0 8.8 -6.36 8.8 -13.08 s-2.36 -12.72 -8.8 -12.72 s-8.8 6 -8.8 12.72 s2.36 13.08 8.8 13.08 z M124.4 39.6 c0.12 0 0.2 0.08 0.2 0.2 s-0.08 0.2 -0.2 0.2 l-6.52 0 c-0.12 0 -0.2 -0.08 -0.2 -0.2 s0.08 -0.2 0.2 -0.2 l1.16 0 c0.52 0 0.84 -0.4 0.84 -0.84 l0 -18.32 c0 -4.16 -1.56 -6.44 -5.04 -6.44 c-5.48 0 -9.2 5.16 -9.2 11.68 l0 13.08 c0 0.44 0.32 0.84 0.84 0.84 l1.16 0 c0.12 0 0.2 0.08 0.2 0.2 s-0.08 0.2 -0.2 0.2 l-6.52 0 c-0.12 0 -0.2 -0.08 -0.2 -0.2 s0.08 -0.2 0.2 -0.2 l1.16 0 c0.52 0 0.84 -0.4 0.84 -0.84 l0 -23.88 c0 -0.44 -0.32 -0.84 -0.84 -0.84 l-1.16 0 c-0.12 0 -0.2 -0.08 -0.2 -0.2 s0.08 -0.2 0.2 -0.2 l4.44 0 l0 8.7524 c1.0816 -5.334 4.8156 -8.9524 9.84 -8.9524 c4.08 0 7 1.8 7 7.6 l0 17.72 c0 0.44 0.32 0.84 0.84 0.84 l1.16 0 z M148.12 38.36 c0.08 0 0.2 0.08 0.2 0.24 c0 0.48 -1.12 1.6 -2.8 1.6 c-1.48 0 -2.76 -0.88 -2.76 -2.88 l0 -3.56 c-0.72 3.08 -3.2 6.44 -7.44 6.44 c-4.72 0 -7.36 -2.88 -7.36 -6.44 c0 -3.64 2.96 -6.24 8.36 -6.48 l6.44 -0.23558 l0 -7.7244 c0 -2.88 -1.68 -5.4 -6.6 -5.4 c-3.4 0 -6.4 1.96 -6.4 3.6 c0 0.96 1.44 1.16 1.44 2.32 c0 0.8 -0.64 1.32 -1.32 1.32 c-0.72 0 -1.48 -0.6 -1.48 -2.08 c0 -3.12 3.6 -5.64 8.08 -5.64 c6.28 0 8.8 2.76 8.8 6.44 l0 18.04 c0 1.08 0.52 1.48 1.16 1.48 c0.52 0 1 -0.24 1.4 -0.88 c0.08 -0.12 0.16 -0.16 0.28 -0.16 z M136 39.48 c3.92 0 6.76 -3.96 6.76 -8.56 l0 -3.4756 l-6.44 0.23558 c-3.52 0.16 -5.72 2.8 -5.72 5.6 c0 4.04 2.36 6.2 5.4 6.2 z"/>
    </g>
    <g id="SvgjsG5178" featurekey="sloganFeature-0"
       transform="matrix(1.4802958457170599,0,0,1.4802958457170599,76.00000017646502,196.80573022847136)"
       fill="url(#SvgjsLinearGradient5195)">
        <path d="M8.8 20 l-1.72 -0.000019531 l-3.14 -6.06 l-2.6 0 l0 6.06 l-1.34 0 l0 -15 l3.44 0 c1.3733 0 2.46 0.39334 3.26 1.18 s1.2 1.8667 1.2 3.24 c0 0.42666 -0.05666 0.86 -0.17 1.3 s-0.27668 0.85334 -0.49002 1.24 s-0.47668 0.73666 -0.79002 1.05 s-0.67 0.55668 -1.07 0.73002 z M6.48 9.32 c0 -0.46666 -0.08 -0.88664 -0.24 -1.26 s-0.38 -0.69 -0.66 -0.95 s-0.61334 -0.46 -1 -0.6 s-0.80666 -0.21 -1.26 -0.21 l-1.98 0 l0 6.26 l2.1 0 c1.0667 0 1.84 -0.28666 2.32 -0.86 s0.72 -1.3667 0.72 -2.38 z M19.518500000000003 20 l-7.5 0 l0 -15 l7.36 0 l0 1.52 l-5.98 0 l0 5.16 l5.94 0 l0 1.3 l-5.94 0 l0 5.5 l6.12 0 l0 1.52 z M29.977000000000004 16.12 c0 1.2267 -0.3199 2.21 -0.9599 2.95 s-1.5933 1.11 -2.86 1.11 c-0.74666 0 -1.3767 -0.10666 -1.89 -0.32 s-0.93 -0.52 -1.25 -0.92 s-0.55 -0.88 -0.69 -1.44 s-0.20334 -1.1867 -0.19 -1.88 l0.02 -0.52 l1.54 0 c0 0.42666 0.01334 0.86332 0.04 1.31 s0.11332 0.85332 0.25998 1.22 s0.37332 0.66666 0.67998 0.9 s0.74666 0.35 1.32 0.35 c0.88 0 1.5267 -0.23334 1.94 -0.7 s0.62 -1.12 0.62 -1.96 c0 -0.66666 -0.16 -1.1933 -0.48 -1.58 s-0.72 -0.71332 -1.2 -0.97998 s-0.99666 -0.50666 -1.55 -0.72 s-1.07 -0.48 -1.55 -0.8 s-0.88 -0.73 -1.2 -1.23 s-0.48 -1.1633 -0.48 -1.99 c0 -1.3333 0.34334 -2.3434 1.03 -3.03 s1.6967 -1.03 3.03 -1.03 c0.62666 0 1.17 0.1 1.63 0.3 s0.84334 0.48 1.15 0.84 s0.53332 0.78666 0.67998 1.28 s0.22 1.04 0.22 1.64 l0 1.26 l-1.46 0 c0 -0.44 -0.0033398 -0.89666 -0.01 -1.37 s-0.07666 -0.90668 -0.21 -1.3 s-0.35668 -0.71668 -0.67002 -0.97002 s-0.77 -0.38 -1.37 -0.38 c-0.86666 0 -1.52 0.22 -1.96 0.66 s-0.64666 1.0867 -0.62 1.94 l0 0.2 c0.01334 0.41334 0.08334 0.75668 0.21 1.03 s0.3 0.50668 0.52 0.70002 s0.47666 0.36334 0.77 0.51 s0.61334 0.3 0.96 0.46 c0.50666 0.22666 1 0.46666 1.48 0.72 s0.90334 0.55 1.27 0.89 s0.66332 0.74 0.88998 1.2 s0.34 1.01 0.34 1.65 z M40.075500000000005 6.460000000000001 l-3.1 0 l0 13.54 l-1.48 0 l0 -13.54 l-3.1 0 l0 -1.46 l7.68 0 l0 1.46 z M50.174000000000014 20 l-1.4 0 l-1.06 -4.3 l-4.36 0 l-1.06 4.3 l-1.36 0 l4.06 -15 l1.14 0 z M47.37400000000001 14.36 l-1.78 -7.42 l-1.9 7.42 l3.68 0 z M60.71250000000001 16.12 c0 1.3333 -0.32336 2.3434 -0.97002 3.03 s-1.6433 1.03 -2.99 1.03 c-1.28 0 -2.2434 -0.36666 -2.89 -1.1 s-0.97 -1.72 -0.97 -2.96 l0 -11.12 l1.42 0 l0 11.06 c0 0.37334 0.05 0.72334 0.15 1.05 s0.25 0.61332 0.45 0.85998 s0.45 0.44 0.75 0.58 s0.65 0.21 1.05 0.21 c0.97334 0 1.65 -0.27 2.03 -0.81 s0.57 -1.2633 0.57 -2.17 l0 -10.78 l1.4 0 l0 11.12 z M73.51100000000001 20 l-1.72 -0.000019531 l-3.14 -6.06 l-2.6 0 l0 6.06 l-1.34 0 l0 -15 l3.44 0 c1.3733 0 2.46 0.39334 3.26 1.18 s1.2 1.8667 1.2 3.24 c0 0.42666 -0.05666 0.86 -0.17 1.3 s-0.27668 0.85334 -0.49002 1.24 s-0.47668 0.73666 -0.79002 1.05 s-0.67 0.55668 -1.07 0.73002 z M71.19100000000002 9.32 c0 -0.46666 -0.08 -0.88664 -0.24 -1.26 s-0.38 -0.69 -0.66 -0.95 s-0.61334 -0.46 -1 -0.6 s-0.80666 -0.21 -1.26 -0.21 l-1.98 0 l0 6.26 l2.1 0 c1.0667 0 1.84 -0.28666 2.32 -0.86 s0.72 -1.3667 0.72 -2.38 z M85.54950000000001 20 l-1.4 0 l-1.06 -4.3 l-4.36 0 l-1.06 4.3 l-1.36 0 l4.06 -15 l1.14 0 z M82.74950000000001 14.36 l-1.78 -7.42 l-1.9 7.42 l3.68 0 z M97.00800000000001 20 l-1.56 0 l-5.2 -11.8 l0 11.8 l-1.44 0 l0 -15 l1.44 0 l5.22 11.3 l0.12 -11.3 l1.42 0 l0 15 z M108.0865 6.460000000000001 l-3.1 0 l0 13.54 l-1.48 0 l0 -13.54 l-3.1 0 l0 -1.46 l7.68 0 l0 1.46 z"/>
    </g>
</svg>