<svg width="470" height="470" viewBox="0 0 470 470" fill="none" xmlns="http://www.w3.org/2000/svg">
<path d="M301.333 117.481C297.926 119.704 295.111 123.259 293.037 126.815C292.148 126.37 291.259 125.926 290.519 125.63C288.741 124.889 287.407 124.741 286.37 125.926C285.333 127.111 284.889 129.926 285.63 132.889C286.222 135.111 287.407 137.333 289.333 138.963C284.296 146.222 277.037 150.074 271.111 148C264.148 145.63 261.037 136.296 263.852 125.926C259.852 136 250.963 142.37 244 139.852C240.889 138.815 238.37 136 236.741 132.444C239.259 131.852 241.481 130.074 242.963 128.148C244.889 125.778 245.63 122.963 245.185 121.481C244.741 119.852 243.259 119.556 241.481 119.556C240.593 119.556 239.704 119.556 238.667 119.704C238.222 115.556 236.889 111.259 234.815 108C232.741 111.407 231.407 115.556 230.963 119.704C229.926 119.704 229.037 119.556 228.148 119.556C226.222 119.556 224.889 119.852 224.444 121.481C224 122.963 224.741 125.778 226.667 128.148C228.148 130.074 230.37 131.852 232.889 132.444C231.259 136.148 228.593 138.815 225.63 139.852C218.37 142.37 209.481 136 205.63 125.926C208.296 136.296 205.333 145.63 198.37 148C192.296 150.074 185.037 146.222 180.148 138.963C182.074 137.481 183.259 135.111 183.852 132.889C184.593 129.926 184.148 127.111 183.111 125.926C182.074 124.593 180.593 124.889 178.963 125.63C178.222 125.926 177.333 126.37 176.444 126.815C174.222 123.111 171.407 119.704 168 117.481L185.926 164C186.963 163.704 209.778 155.556 234.519 155.556C259.259 155.556 282.222 163.704 283.259 164L301.333 117.481Z" fill="url(#paint0_linear_207_7)"/>
<path d="M280.593 171.556C280.444 171.407 257.926 163.407 234.667 163.407C211.407 163.407 188.889 171.407 188.741 171.407L186.963 166.37C187.852 166.074 210.37 158.074 234.667 158.074C258.963 158.074 281.481 166.074 282.518 166.37L280.593 171.556Z" fill="url(#paint1_linear_207_7)"/>
<path d="M83.2422 264.336C83.5144 264.336 83.6959 264.517 83.6959 264.79C83.6959 265.062 83.5144 265.243 83.2422 265.243H68.4536C68.1815 265.243 68 265.062 68 264.79C68 264.517 68.1815 264.336 68.4536 264.336H71.0847C72.2642 264.336 72.99 263.429 72.99 262.431V208.266C72.99 207.268 72.2642 206.361 71.0847 206.361H68.4536C68.1815 206.361 68 206.179 68 205.907C68 205.635 68.1815 205.454 68.4536 205.454H83.2422C83.5144 205.454 83.6959 205.635 83.6959 205.907C83.6959 206.179 83.5144 206.361 83.2422 206.361H80.6111C79.4317 206.361 78.7059 207.268 78.7059 208.266V262.431C78.7059 263.429 79.4317 264.336 80.6111 264.336H83.2422ZM115.995 264.336C116.267 264.336 116.449 264.517 116.449 264.79C116.449 265.062 116.267 265.243 115.995 265.243H99.9361C99.6639 265.243 99.4825 265.062 99.4825 264.79C99.4825 264.517 99.6639 264.336 99.9361 264.336H102.114C103.928 264.336 104.2 263.247 103.384 262.249L81.0648 235.938L107.829 208.266C108.555 207.54 108.646 206.361 106.831 206.361H101.66C101.388 206.361 101.206 206.179 101.206 205.907C101.206 205.635 101.388 205.454 101.66 205.454H115.723C115.995 205.454 116.176 205.635 116.176 205.907C116.176 206.179 115.995 206.361 115.723 206.361H114.725C111.731 206.361 110.461 206.905 109.19 208.266L85.5104 232.763L110.551 262.249C111.64 263.61 112.729 264.336 114.634 264.336H115.995ZM148.203 205C164.806 205 174.061 217.611 174.061 234.94C174.061 252.269 164.806 265.697 148.203 265.697C131.6 265.697 122.346 252.269 122.346 234.94C122.346 217.611 131.6 205 148.203 205ZM148.203 264.608C162.81 264.608 168.163 250.182 168.163 234.94C168.163 219.698 162.81 206.089 148.203 206.089C133.596 206.089 128.243 219.698 128.243 234.94C128.243 250.182 133.596 264.608 148.203 264.608ZM203.5 235C194.925 235.306 203.5 234.274 203.5 235C203.5 235.726 198.207 235.432 198 235C202.5 234.5 207 235.5 196.5 235.847H193.295V262.431C193.295 263.429 194.021 264.336 195.2 264.336H197.831C198.103 264.336 198.285 264.517 198.285 264.79C198.285 265.062 198.103 265.243 197.831 265.243H183.043C182.77 265.243 182.589 265.062 182.589 264.79C182.589 264.517 182.77 264.336 183.043 264.336H185.674C186.853 264.336 187.579 263.429 187.579 262.431V208.266C187.579 207.268 186.853 206.361 185.674 206.361H183.043C182.77 206.361 182.589 206.179 182.589 205.907C182.589 205.635 182.77 205.454 183.043 205.454H200.281C211.35 205.454 219.606 209.899 219.606 219.516C219.606 228.226 213.432 234.155 202 235.425C207.13 234.05 192.393 235.306 201.557 235.306C201.413 234.884 207.5 232.5 203.5 235ZM193.295 234.94H197.922C209.717 234.94 213.709 226.684 213.709 219.516C213.709 210.988 209.717 206.361 199.283 206.361H195.2C194.021 206.361 193.295 207.268 193.295 208.266V234.94ZM259.435 205C276.038 205 285.293 217.611 285.293 234.94C285.293 252.269 276.038 265.697 259.435 265.697C242.832 265.697 233.578 252.269 233.578 234.94C233.578 217.611 242.832 205 259.435 205ZM259.435 264.608C274.042 264.608 279.395 250.182 279.395 234.94C279.395 219.698 274.042 206.089 259.435 206.089C244.828 206.089 239.475 219.698 239.475 234.94C239.475 250.182 244.828 264.608 259.435 264.608ZM347.078 264.336C347.35 264.336 347.532 264.517 347.532 264.79C347.532 265.062 347.35 265.243 347.078 265.243H332.29C332.017 265.243 331.836 265.062 331.836 264.79C331.836 264.517 332.017 264.336 332.29 264.336H334.921C336.1 264.336 336.826 263.429 336.826 262.431L337.209 220.815C337.209 211.379 338 205.885 338 216.5C338.674 250.5 360 230.237 304.527 236.5V262.431C304.527 263.429 305.253 264.336 306.432 264.336H309.063C309.336 264.336 309.517 264.517 309.517 264.79C309.517 265.062 309.336 265.243 309.063 265.243H294.275C294.003 265.243 293.821 265.062 293.821 264.79C293.821 264.517 294.003 264.336 294.275 264.336H296.906C298.085 264.336 298.811 263.429 298.811 262.431V208.266C298.811 207.268 298.085 206.361 296.906 206.361H294.275C294.003 206.361 293.821 206.179 293.821 205.907C293.821 205.635 294.003 205.454 294.275 205.454H304.345L304.527 232C341.5 236.765 337.326 232.407 336.826 205.907C343.5 207.315 342.542 205 342.542 222.238V262.431C342.542 263.429 343.268 264.336 344.447 264.336H347.078ZM400.88 261.523C401.061 261.523 401.333 261.705 401.333 262.068C401.333 263.156 398.793 265.697 394.982 265.697C391.625 265.697 388.722 263.701 388.722 259.164V251.09C387.089 258.076 381.464 265.697 371.847 265.697C361.141 265.697 355.153 259.164 355.153 251.09C355.153 242.833 361.867 236.936 374.115 236.392L388.722 235.857V218.337C388.722 211.805 384.912 206.089 373.752 206.089C366.04 206.089 359.236 210.534 359.236 214.254C359.236 216.432 362.502 216.885 362.502 219.516C362.502 221.331 361.05 222.51 359.508 222.51C357.875 222.51 356.151 221.15 356.151 217.793C356.151 210.716 364.316 205 374.478 205C388.722 205 394.438 211.26 394.438 219.607V260.525C394.438 262.975 395.617 263.882 397.069 263.882C398.249 263.882 399.337 263.338 400.245 261.886C400.426 261.614 400.607 261.523 400.88 261.523ZM373.389 264.064C382.281 264.064 388.722 255.082 388.722 244.648V236.765L374.115 237.299C366.131 237.662 361.141 243.65 361.141 250.001C361.141 259.164 366.494 264.064 373.389 264.064Z" fill="url(#paint2_linear_207_7)"/>
<path d="M123.044 335.353L118.801 335.353L111.054 320.402H104.639V335.353H101.333V298.345H109.82C113.209 298.345 115.89 299.316 117.863 301.257C119.837 303.197 120.824 305.862 120.824 309.25C120.824 310.303 120.684 311.372 120.405 312.457C120.125 313.543 119.722 314.563 119.196 315.517C118.669 316.471 118.02 317.334 117.246 318.107C116.473 318.88 115.593 319.481 114.607 319.908L123.044 335.353ZM117.321 309.003C117.321 307.852 117.123 306.816 116.728 305.895C116.334 304.974 115.791 304.193 115.1 303.551C114.409 302.91 113.587 302.416 112.633 302.071C111.679 301.725 110.643 301.553 109.524 301.553H104.639V316.997H109.82C112.452 316.997 114.36 316.29 115.544 314.875C116.728 313.461 117.321 311.503 117.321 309.003ZM149.489 335.353H130.985V298.345H149.143V302.095H134.39V314.826H149.045V318.033H134.39V331.603H149.489V335.353ZM175.291 325.78C175.291 328.807 174.502 331.233 172.923 333.058C171.344 334.884 168.992 335.797 165.867 335.797C164.025 335.797 162.471 335.534 161.204 335.007C159.938 334.481 158.91 333.724 158.12 332.738C157.331 331.751 156.763 330.566 156.418 329.185C156.072 327.803 155.916 326.257 155.949 324.547L155.998 323.264H159.798C159.798 324.316 159.831 325.394 159.897 326.496C159.962 327.598 160.176 328.601 160.538 329.506C160.9 330.41 161.459 331.15 162.216 331.726C162.972 332.302 164.058 332.59 165.472 332.59C167.643 332.59 169.239 332.014 170.259 330.863C171.278 329.711 171.788 328.099 171.788 326.027C171.788 324.382 171.393 323.083 170.604 322.129C169.814 321.175 168.828 320.369 167.643 319.711C166.459 319.053 165.184 318.461 163.819 317.935C162.454 317.408 161.179 316.75 159.995 315.961C158.811 315.171 157.824 314.16 157.035 312.926C156.245 311.693 155.85 310.056 155.85 308.017C155.85 304.727 156.697 302.235 158.392 300.541C160.086 298.847 162.578 298 165.867 298C167.413 298 168.754 298.247 169.888 298.74C171.023 299.234 171.969 299.924 172.726 300.813C173.482 301.701 174.042 302.753 174.403 303.971C174.765 305.188 174.946 306.536 174.946 308.017V311.125H171.344C171.344 310.04 171.336 308.913 171.319 307.745C171.303 306.577 171.13 305.508 170.801 304.538C170.472 303.568 169.921 302.77 169.148 302.145C168.375 301.52 167.249 301.207 165.768 301.207C163.63 301.207 162.018 301.75 160.933 302.836C159.847 303.921 159.337 305.517 159.403 307.622V308.115C159.436 309.135 159.609 309.982 159.921 310.656C160.234 311.331 160.661 311.907 161.204 312.384C161.747 312.861 162.38 313.28 163.104 313.642C163.827 314.004 164.617 314.382 165.472 314.777C166.722 315.336 167.939 315.928 169.124 316.553C170.308 317.178 171.352 317.91 172.257 318.749C173.161 319.588 173.893 320.575 174.453 321.709C175.012 322.844 175.291 324.201 175.291 325.78ZM200.206 301.947H192.558V335.353H188.906V301.947H181.258V298.345H200.206V301.947ZM225.121 335.353H221.667L219.051 324.744H208.295L205.679 335.353H202.324L212.341 298.345H215.153L225.121 335.353ZM218.213 321.438L213.821 303.132L209.133 321.438H218.213ZM251.121 325.78C251.121 329.07 250.323 331.562 248.728 333.256C247.132 334.95 244.673 335.797 241.351 335.797C238.193 335.797 235.816 334.892 234.221 333.083C232.625 331.274 231.828 328.839 231.828 325.78V298.345H235.331V325.632C235.331 326.553 235.454 327.417 235.701 328.223C235.948 329.029 236.318 329.736 236.811 330.344C237.305 330.953 237.921 331.43 238.662 331.775C239.402 332.121 240.265 332.293 241.252 332.293C243.654 332.293 245.323 331.627 246.26 330.295C247.198 328.963 247.667 327.178 247.667 324.941V298.345H251.121L251.121 325.78ZM282.697 335.353L278.453 335.353L270.706 320.402H264.292V335.353H260.986V298.345H269.473C272.861 298.345 275.542 299.316 277.516 301.257C279.489 303.197 280.476 305.862 280.476 309.25C280.476 310.303 280.337 311.372 280.057 312.457C279.777 313.543 279.374 314.563 278.848 315.517C278.322 316.471 277.672 317.334 276.899 318.107C276.126 318.88 275.246 319.481 274.259 319.908L282.697 335.353ZM276.973 309.003C276.973 307.852 276.776 306.816 276.381 305.895C275.986 304.974 275.443 304.193 274.753 303.551C274.062 302.91 273.239 302.416 272.285 302.071C271.331 301.725 270.295 301.553 269.177 301.553H264.292V316.997H269.473C272.104 316.997 274.012 316.29 275.197 314.875C276.381 313.461 276.973 311.503 276.973 309.003ZM312.398 335.353H308.944L306.328 324.744H295.572L292.956 335.353H289.601L299.618 298.345H302.43L312.398 335.353ZM305.49 321.438L301.098 303.132L296.41 321.438H305.49ZM340.668 335.353H336.819L323.99 306.24V335.353H320.437V298.345H323.99L336.868 326.224L337.164 298.345H340.668V335.353ZM368 301.947H360.352V335.353H356.7V301.947H349.052V298.345H368V301.947Z" fill="url(#paint3_linear_207_7)"/>
<path d="M57.2432 385.139C61.9273 390.546 66.8687 395.731 72.051 400.678C89.5193 417.593 110.35 431.811 132.697 442.565C140.931 446.358 148.526 450.288 157.424 453.671C159.647 454.511 161.919 455.411 164.306 456.221C166.714 456.972 169.21 457.723 171.82 458.466C174.415 459.264 177.181 459.831 180.074 460.42C182.969 460.991 185.976 461.645 189.205 461.971C173.187 458.649 157.574 453.657 142.631 447.081C127.595 440.408 113.308 432.209 100.002 422.617C73.3522 403.409 50.5581 378.749 33.9085 350.558C33.2213 349.715 32.1779 348.109 30.9272 346.064L28.9161 342.713L26.8874 338.858C25.5382 336.183 23.9844 333.468 22.7944 330.839C21.7274 328.538 20.6104 326.261 19.4443 324.008C24.6186 336.688 30.5912 347.779 37.2789 358.326C40.3593 363.163 43.6198 367.886 47.0539 372.487C46.5688 371.843 46.0635 371.217 45.5809 370.57C49.2609 375.558 53.1378 380.401 57.2028 385.09L57.2432 385.139ZM3.37325 263.592L2.15295 253.96C2.79974 259.839 3.55011 266.408 4.922 272.986L4.09583 268.315C3.79089 266.751 3.54983 265.175 3.37325 263.592ZM216.804 461.29C233.61 462.963 251.235 462.463 268.499 459.776C285.773 457.099 302.667 452.351 318.374 446.231C289.446 457.424 258.744 462.403 228.709 461.571C224.689 461.508 220.728 461.571 216.804 461.29Z" fill="url(#paint4_linear_207_7)"/>
<path d="M117.296 427.464L116.641 427.054C116.861 427.191 117.076 427.33 117.296 427.464ZM141.679 440.681C155.527 447.02 170.032 451.867 184.94 455.138C160.463 449.644 137.429 439.952 117.296 427.464C125.027 432.304 133.154 436.783 141.679 440.681ZM447.196 266.207C447.443 262.28 447.943 258.158 448.07 256.197C449.571 243.592 450.015 232.829 449.952 222.031C449.674 220.084 448.878 216.438 448.562 212.292C448.176 208.136 447.607 204.066 447.127 200.052C446.397 196.072 445.768 192.132 444.97 188.27C450.718 217.146 450.622 246.135 445.334 273.485C445.915 271.05 446.536 268.623 447.196 266.207Z" fill="url(#paint5_linear_207_7)"/>
<path d="M2.24164 207.514C4.38411 190.363 8.94444 173.644 13.2824 162.505L11.5265 170.658C12.6104 168.27 14.3613 162.719 16.7488 156.845L18.4719 152.366L20.3743 148.023C21.6376 145.212 22.6987 142.547 23.8179 140.504C23.0524 142.42 22.3147 144.486 21.4253 146.559C20.5537 148.64 19.5759 150.753 18.6437 152.878L22.4688 144.404C18.6093 153.916 15.2869 163.631 12.5169 173.504C9.65439 184.322 7.39064 195.692 6.17287 205.899C5.81916 208.444 5.69536 210.93 5.46545 213.301C5.29618 215.672 5.0031 217.934 4.98036 220.072C4.87425 224.345 4.72771 228.086 4.80098 231.079C5.06627 237.067 5.43261 240.052 5.96065 238.385C6.99904 235.071 6.97882 218.031 10.6018 196.706C12.5396 186.077 15.3213 174.419 19.0959 162.997C22.8427 151.565 27.7542 140.482 32.8401 130.703L31.3444 133.914L29.9674 137.223L27.1479 143.912L24.5607 150.822L23.2444 154.307C22.8579 155.49 22.4663 156.679 22.0797 157.872C18.7447 167.335 16.2511 177.3 14.0783 187.345L12.666 194.931C12.148 197.452 11.9282 200.017 11.5442 202.555C10.7408 207.629 10.4477 212.739 10.0005 217.79C9.49774 227.917 9.39668 237.92 10.329 247.485C10.2911 245.213 10.2532 243.194 10.286 241.241L10.5766 235.387C10.6978 233.376 10.6751 231.243 10.8671 228.8C11.044 226.356 11.2057 223.602 11.3471 220.343C12.335 203.917 15.3188 187.656 19.9574 171.919C24.3788 156.114 29.5935 142.197 37.3625 129.587L39.3862 125.793C40.7556 123.248 41.895 120.737 43.3427 118.177C44.9925 115.368 46.5716 113.265 47.85 111.339C49.1663 109.432 50.283 107.757 51.5614 106.131L60.864 93.4987C61.0535 93.4764 60.8084 93.9586 60.3587 94.6745C61.8925 92.524 63.5447 90.4578 65.3081 88.485C67.2156 86.31 69.0675 84.0032 70.6365 82.0992C71.0053 82.0818 71.3641 82.0718 72.2105 81.4752C94.0647 58.614 120.959 39.9834 151.267 28.2383L158.005 25.6557L164.827 23.421L168.22 22.3074L171.656 21.3628L178.503 19.491C182.419 18.5639 186.385 17.6243 190.43 16.7791L196.587 15.7202C198.657 15.3697 200.736 14.9745 202.863 14.7806C207.093 14.281 210.781 13.227 212.77 12.9685C223.808 12.3495 234.826 12.4738 247.759 13.5054C248.762 13.5228 250.324 13.6123 252.135 13.7092C253.947 13.8112 256.018 13.8609 258.027 14.0423C260.382 14.5643 262.895 15.0814 265.533 15.586C281.624 18.0419 297.183 22.4317 311.985 28.2707L311.968 28.2011L317.637 30.4233L323.423 33.0532C327.392 34.7534 331.28 36.9285 335.297 38.9767C337.313 39.9884 339.223 41.2238 341.204 42.3424C343.15 43.5206 345.186 44.5646 347.066 45.8522C350.876 48.3429 354.739 50.7268 358.298 53.389C364.038 57.464 369.602 61.7747 374.973 66.3098C375.09 66.4142 375.211 66.5111 375.327 66.6131L375.433 66.7075L379.114 69.9937L382.636 73.4513L386.161 76.9114C387.328 78.0723 388.409 79.3151 389.539 80.5133C388.993 79.6433 389.013 79.2928 389.033 78.9473C387.293 77.3067 385.233 75.3653 383.2 73.4538C386.593 76.4914 389.554 79.2381 391.984 81.4802C392.922 82.6585 393.945 83.8168 394.915 85.082L397.911 88.9747L401.097 93.024L404.268 97.379C409.892 104.433 414.857 111.98 419.571 119.676C421.754 123.623 424.162 127.459 426.105 131.543L429.169 137.598L431.928 143.805C432.722 145.13 432.413 143.86 432.512 143.636C435.607 150.999 438.095 158.655 440.349 166.37C444.657 180.314 447.541 194.646 448.959 209.152C449.528 212.578 449.77 216.043 450.273 219.476L449.962 226.744C449.96 229.486 450.106 232.227 449.988 234.974L449.664 243.242C449.624 245.106 449.351 247.142 449.192 249.354C448.98 251.561 448.868 253.943 448.545 256.453L447.504 264.388C447.171 267.169 446.526 270.028 446.031 273.016C443.565 286.136 439.919 299.015 435.137 311.5C434.525 313.553 434.058 315.194 433.641 316.111C432.057 319.842 430.367 323.454 428.735 327.011C426.908 330.476 425.233 333.941 423.361 337.222C417.571 348.024 410.852 358.319 403.278 367.993C402.429 369.084 401.638 370.193 400.784 371.217L398.263 374.215C396.595 376.151 395.105 378.088 393.523 379.768C390.362 383.129 387.709 386.246 385.221 388.59C382.371 391.518 382.626 391.655 384.599 390.243C385.984 389.236 387.339 388.19 388.662 387.106L394.023 382.348C395.984 380.665 397.861 378.766 399.67 376.977C401.459 375.174 403.247 373.531 404.627 372.045C407.409 369.084 409.235 367.257 408.846 368.07C404.357 376.385 396.181 386.641 384.23 397.986C378.134 403.522 371.275 409.537 363.162 415.336C359.206 418.371 354.807 421.148 350.322 424.181C345.689 426.972 340.954 430.029 335.777 432.744C324.448 438.814 344.279 429.077 344.815 428.985C342.902 430.467 340.896 431.829 338.809 433.062C335.075 435.016 331.374 437.032 327.506 438.712C325.244 439.734 323.024 440.837 320.737 441.792L313.842 444.581L317.491 443.169C324.949 440.253 331.919 436.818 338.213 433.42C335.848 434.827 333.261 436.455 330.426 437.924C327.387 439.47 324.241 441.161 321.086 442.669L311.927 446.86C344.691 435.15 374.799 415.771 398.634 390.509C410.567 377.916 421.208 364.083 429.884 349.119C438.614 334.185 445.637 318.347 450.824 301.893C442.855 326.576 430.433 349.251 415.501 368.423C442.646 332.363 458.83 288.151 460.975 242.556C460.973 245.069 460.72 247.572 460.551 250.075C460.341 252.578 460.24 255.091 459.942 257.587C459.293 262.571 458.828 267.582 457.853 272.524C456.276 282.467 453.719 292.238 450.824 301.893C456.539 284.44 459.952 266.038 461.296 247.532C462.696 229.011 461.529 210.378 458.626 192.321C463.613 216.239 464.439 243.339 460.19 270.12C463.176 252.847 463.934 235.041 462.787 217.388C462.529 210.644 461.721 203.947 461.056 197.748C460.104 191.593 459.384 185.911 458.462 181.315C462.112 198.282 463.552 212.754 464.255 226.396C463.58 196.624 457.312 166.46 445.003 138.125C451.721 153.514 457.236 170.069 460.604 187.089C463.99 204.091 465.397 221.487 464.596 238.22C464.558 236.262 464.641 234.305 464.525 232.339L464.255 226.396C464.98 253.366 460.758 280.098 452.39 305.236C448.191 317.804 443.004 330.016 436.726 341.637C430.46 353.24 423.227 364.311 415.099 374.737C424.379 364.073 434.177 349 441.996 332.442C449.78 315.85 455.559 297.905 459.533 282.233C453.686 310.376 442.082 338.147 425.246 362.947C408.455 387.767 386.461 409.589 361.014 426.338C335.598 443.139 306.76 454.767 277.168 460.512C262.474 463.383 247.538 464.889 232.557 465.009C217.85 465.086 203.166 463.825 188.695 461.243L196.287 462.662C198.818 463.134 201.385 463.395 203.932 463.768C209.025 464.574 214.177 464.877 219.311 465.342C229.601 465.911 239.947 466.102 250.26 465.329C260.591 464.79 270.856 463.274 281.074 461.422C286.142 460.288 291.27 459.361 296.275 457.907C298.787 457.216 301.328 456.612 303.822 455.844L311.288 453.462C307.518 454.611 303.552 456.132 299.315 457.248L294.007 458.784C305.146 455.862 316.049 452.126 326.624 447.609C331.461 445.532 336.223 443.289 340.901 440.885C332.136 445.459 323.097 449.503 313.832 452.995C296.165 459.482 277.806 463.97 259.108 466.373C256.304 466.811 253.747 466.948 251.455 467.184L245.321 467.78C241.711 468.061 239.045 468.188 237.181 468.389C233.449 468.755 232.919 469.095 234.404 469.376C235.887 469.657 239.384 469.881 243.684 470C247.971 469.975 253.057 469.749 257.683 469.334C304.163 464.643 346.838 446.696 381.037 419.828C415.258 392.955 441.468 357.257 456.076 316.752C456.994 314.401 457.699 311.975 458.462 309.568C459.202 307.155 460.02 304.766 460.69 302.33C461.93 297.433 463.398 292.593 464.348 287.622L465.912 280.202L467.143 272.715L467.751 268.969L468.186 265.198L469.05 257.656C470.814 237.487 470.116 217.102 466.999 197.097C465.331 185.777 462.4 172.336 458.623 160.365L455.718 151.705C454.707 148.953 453.633 146.358 452.678 143.917L451.271 140.4L449.828 137.24L447.35 131.96C439.432 116.154 429.483 101.078 417.835 87.0557C406.201 73.0287 392.833 60.0408 377.763 48.7307L372.093 44.4975L366.214 40.5005L363.268 38.497L360.229 36.6177L354.122 32.8693C345.797 28.1364 337.27 23.5751 328.281 19.7918C319.385 15.8196 310.075 12.5956 300.598 9.71218C295.811 8.4196 291.046 6.97788 286.137 5.98607C283.691 5.46655 281.266 4.83518 278.792 4.40017L271.354 3.10511C253.568 0.0252867 235.066 -0.708004 216.582 0.659148C198.108 2.06359 179.556 5.51378 161.767 11.4696L155.11 13.7391C152.884 14.4773 150.739 15.4343 148.549 16.272C146.381 17.1644 144.165 17.9449 142.038 18.9293L135.641 21.845C133.488 22.7797 131.409 23.8535 129.335 24.9398L123.097 28.1638L117.028 31.6736C115.007 32.8469 112.97 33.9928 111.035 35.2978L105.164 39.096C103.188 40.3314 101.359 41.7756 99.4512 43.103C97.579 44.4801 95.6362 45.7627 93.8272 47.2144L88.3775 51.5321C86.5357 52.9366 84.7975 54.4603 83.0643 55.9866L77.8521 60.5354L72.8724 65.3056C71.215 66.8939 69.54 68.4649 67.9963 70.1552C55.2855 83.3246 44.1183 97.6922 34.9851 112.895C26.0288 127.809 18.6894 143.607 13.0879 160.029C2.03447 192.145 -1.13629 224.716 0.339187 254.134C0.0208486 242.024 -0.0322078 224.656 2.24164 207.514ZM358.811 432.339C366.489 427.456 373.882 422.154 380.956 416.457C373.781 422.271 366.409 427.641 358.811 432.339ZM460.42 297.408C459.664 299.648 459.025 301.86 458.191 303.973L455.773 310.245L454.596 313.347L453.3 316.407C452.434 318.469 451.594 320.541 450.781 322.623C446.103 334.087 440.539 345.181 434.139 355.808C427.77 366.435 420.387 376.392 412.499 385.736C408.604 390.457 404.359 394.834 400.185 399.211L393.664 405.483C391.524 407.591 389.182 409.47 386.964 411.459C385.105 413.049 383.23 414.606 381.343 416.137C388.352 410.472 395.014 404.403 401.292 397.961C392.208 407.224 382.327 415.698 371.76 423.286C369.142 425.08 366.613 427.004 363.895 428.695L355.691 433.838L347.025 438.682C344.077 440.293 340.964 441.725 337.844 443.293C340.079 441.998 342.34 440.748 344.628 439.545C347.207 438.135 349.913 436.47 352.556 434.946C355.219 433.452 357.639 431.812 359.65 430.44C361.661 429.067 363.238 427.929 364.059 427.193C362.887 427.976 361.694 428.727 360.507 429.49C361.784 428.661 363.053 427.82 364.314 426.967C364.261 427.024 364.15 427.114 364.059 427.193C391.679 408.635 415.208 384.247 432.838 356.444C450.546 328.666 462.069 297.331 466.844 265.464C465.809 278.246 463.429 288.452 460.42 297.408ZM422.264 103.397C429.868 114.695 436.439 126.634 441.903 139.072C442.534 140.437 443.131 141.821 443.719 143.208C456.258 173.42 461.963 205.829 461.127 237.756C461.339 227.191 460.627 216.632 459.437 206.162C458.09 194.096 455.602 182.175 452.302 170.514C445.829 147.131 435.316 124.968 421.971 104.764C423.197 106.43 424.488 108.234 425.824 110.148C427.255 112.129 428.596 114.172 429.841 116.271L428.229 113.514L426.489 110.832L423.007 105.472C420.637 101.933 418.068 98.5224 415.594 95.0523C412.911 91.7363 410.367 88.311 407.575 85.082C405.463 82.7131 403.439 80.2647 401.297 77.9256C408.856 85.7681 415.953 94.1823 422.264 103.397ZM244.783 2.86399C248.489 3.05788 252.203 3.41334 255.917 3.68677C258.959 3.93783 261.986 4.38029 264.982 4.71338C265.882 4.75066 266.832 4.81032 268.024 4.94206C269.214 5.10364 270.637 5.40441 272.494 5.82201C286.311 8.089 298.918 11.4969 307.867 15.0167C325.042 21.4125 341.022 29.3693 355.517 38.5591C370.016 47.7314 383.028 58.1641 394.036 69.5587C399.109 74.9751 397.628 73.7943 394.832 71.1644L399.031 75.5493C397.171 73.7247 395.345 71.8754 393.457 70.0906L387.644 64.8954C389.059 66.1134 392.49 69.0292 394.832 71.1644C376.163 52.4245 354.342 36.8638 330.722 25.417C307.084 13.9752 281.629 6.90828 256.185 4.08697C260.273 4.5344 262.279 4.63383 264.189 4.68355C261.448 4.36786 258.699 3.93534 255.917 3.68677C252.181 3.44565 248.451 3.11754 244.743 2.93856L233.727 2.68253C237.375 2.68005 241.072 2.77948 244.783 2.86399Z" fill="url(#paint6_linear_207_7)"/>
<path d="M292.928 459.09L294.004 458.779C292.877 459.078 291.768 459.406 290.633 459.689C291.402 459.5 292.172 459.316 292.928 459.09ZM405.311 363.292C416.011 349.405 425.465 332.81 431.501 318.514L431.428 318.529C416.115 354.13 391.277 384.799 360.281 407.379C365.785 403.616 371.191 399.718 376.496 395.689C383.313 388.679 394.72 377.28 405.311 363.292ZM89.312 404.792C107.432 420.73 129.284 434.601 153.606 443.944C163.091 447.457 172.77 450.534 182.669 452.702C187.58 453.949 192.595 454.72 197.572 455.637C200.066 456.072 202.593 456.313 205.099 456.661C207.61 456.982 210.117 457.345 212.646 457.489C201.228 456.244 189.894 454.38 178.861 451.424C167.836 448.478 157.027 444.837 146.6 440.365C136.228 435.822 126.187 430.577 116.55 424.67C106.985 418.684 97.9147 412 89.312 404.792ZM312.975 433.206L307.369 435.371L301.644 437.25C297.854 438.593 293.946 439.597 290.047 440.663C293.966 439.694 297.907 438.789 301.73 437.546L307.498 435.811L313.132 433.785C312.915 433.676 311.631 433.922 312.975 433.206ZM246.796 447.345C243.865 447.591 240.92 447.569 237.969 447.598C235.018 447.633 232.062 447.695 229.103 447.504L233.085 447.872C234.303 447.949 235.399 448.041 236.357 448.153C239.846 447.859 243.31 447.777 246.796 447.345ZM129.966 420.608C133.354 422.565 136.952 424.287 140.522 426.186C141.416 426.669 143.038 427.218 145.072 427.949C140.724 426.112 136.558 423.835 132.323 421.722C130.226 420.626 128.207 419.398 126.151 418.254C124.099 417.101 122.055 415.95 120.115 414.662L122.482 416.219L124.951 417.67L129.966 420.608Z" fill="url(#paint7_linear_207_7)"/>
<defs>
<linearGradient id="paint0_linear_207_7" x1="331.8" y1="91.5292" x2="144.508" y2="143.461" gradientUnits="userSpaceOnUse">
<stop stop-color="#C0A25D"/>
<stop stop-color="#8F5E25"/>
<stop offset="0.21226" stop-color="#FBF4A1"/>
<stop offset="0.317847" stop-color="#DBC87D"/>
<stop offset="0.499822" stop-color="#B18D4C"/>
<stop offset="0.589037" stop-color="#C7AC66"/>
<stop offset="0.704462" stop-color="#DBC77C"/>
<stop offset="1" stop-color="#8F5E25"/>
</linearGradient>
<linearGradient id="paint1_linear_207_7" x1="304.353" y1="154.109" x2="218.382" y2="225.072" gradientUnits="userSpaceOnUse">
<stop stop-color="#C0A25D"/>
<stop stop-color="#8F5E25"/>
<stop offset="0.21226" stop-color="#FBF4A1"/>
<stop offset="0.317847" stop-color="#DBC87D"/>
<stop offset="0.499822" stop-color="#B18D4C"/>
<stop offset="0.589037" stop-color="#C7AC66"/>
<stop offset="0.704462" stop-color="#DBC77C"/>
<stop offset="1" stop-color="#8F5E25"/>
</linearGradient>
<linearGradient id="paint2_linear_207_7" x1="476" y1="188.963" x2="118.142" y2="417.83" gradientUnits="userSpaceOnUse">
<stop stop-color="#C0A25D"/>
<stop offset="0.0001" stop-color="#FBF4A1"/>
<stop offset="0.109375" stop-color="#DBC87D"/>
<stop offset="0.18375" stop-color="#8F5E25"/>
<stop offset="0.330878" stop-color="#B18D4C"/>
<stop offset="0.34184" stop-color="#8F5E25"/>
<stop offset="0.9999" stop-color="#C7AC66"/>
<stop offset="1" stop-color="#DBC77C"/>
</linearGradient>
<linearGradient id="paint3_linear_207_7" x1="428.933" y1="286.883" x2="188.117" y2="484.744" gradientUnits="userSpaceOnUse">
<stop stop-color="#C0A25D"/>
<stop offset="0.0001" stop-color="#FBF4A1"/>
<stop offset="0.109375" stop-color="#DBC87D"/>
<stop offset="0.203125" stop-color="#B18D4C"/>
<stop offset="0.270833" stop-color="#8F5E25"/>
<stop offset="0.375" stop-color="#8F5E25"/>
<stop offset="0.9999" stop-color="#C7AC66"/>
<stop offset="1" stop-color="#DBC77C"/>
</linearGradient>
<linearGradient id="paint4_linear_207_7" x1="-41.0983" y1="217.283" x2="127.362" y2="-17.2342" gradientUnits="userSpaceOnUse">
<stop stop-color="#8F5E25"/>
<stop offset="0.315454" stop-color="#A57D3F"/>
<stop offset="0.365584" stop-color="#D3B97D"/>
<stop offset="0.549105" stop-color="#E4D38D"/>
<stop offset="0.605192" stop-color="#E4D28C"/>
<stop offset="0.664307" stop-color="#E3D08B"/>
<stop offset="0.886599" stop-color="#E6D58E"/>
<stop offset="0.942182" stop-color="#FBF4A1"/>
<stop offset="1" stop-color="#EFE296"/>
<stop offset="1" stop-color="#AF8B4A"/>
</linearGradient>
<linearGradient id="paint5_linear_207_7" x1="71.0518" y1="141.279" x2="296.722" y2="-117.185" gradientUnits="userSpaceOnUse">
<stop stop-color="#8F5E25"/>
<stop offset="0.315454" stop-color="#A57D3F"/>
<stop offset="0.365584" stop-color="#D3B97D"/>
<stop offset="0.549105" stop-color="#E4D38D"/>
<stop offset="0.605192" stop-color="#E4D28C"/>
<stop offset="0.664307" stop-color="#E3D08B"/>
<stop offset="0.886599" stop-color="#E6D58E"/>
<stop offset="0.942182" stop-color="#FBF4A1"/>
<stop offset="1" stop-color="#EFE296"/>
<stop offset="1" stop-color="#AF8B4A"/>
</linearGradient>
<linearGradient id="paint6_linear_207_7" x1="-64.2845" y1="-82.7592" x2="335.322" y2="-449.194" gradientUnits="userSpaceOnUse">
<stop stop-color="#8F5E25"/>
<stop offset="0.315454" stop-color="#A57D3F"/>
<stop offset="0.365584" stop-color="#D3B97D"/>
<stop offset="0.549105" stop-color="#E4D38D"/>
<stop offset="0.605192" stop-color="#E4D28C"/>
<stop offset="0.664307" stop-color="#E3D08B"/>
<stop offset="0.886599" stop-color="#E6D58E"/>
<stop offset="0.942182" stop-color="#FBF4A1"/>
<stop offset="1" stop-color="#EFE296"/>
<stop offset="1" stop-color="#AF8B4A"/>
</linearGradient>
<linearGradient id="paint7_linear_207_7" x1="42.5091" y1="293.656" x2="132.671" y2="93.2577" gradientUnits="userSpaceOnUse">
<stop stop-color="#8F5E25"/>
<stop offset="0.315454" stop-color="#A57D3F"/>
<stop offset="0.365584" stop-color="#D3B97D"/>
<stop offset="0.549105" stop-color="#E4D38D"/>
<stop offset="0.605192" stop-color="#E4D28C"/>
<stop offset="0.664307" stop-color="#E3D08B"/>
<stop offset="0.886599" stop-color="#E6D58E"/>
<stop offset="0.942182" stop-color="#FBF4A1"/>
<stop offset="1" stop-color="#EFE296"/>
<stop offset="1" stop-color="#AF8B4A"/>
</linearGradient>
</defs>
</svg>
