<svg width="28" height="28" viewBox="0 0 28 28" fill="none" xmlns="http://www.w3.org/2000/svg">
<path fill-rule="evenodd" clip-rule="evenodd" d="M28 14C28 21.732 21.732 28 14 28C6.26802 28 0 21.732 0 14C0 6.26802 6.26802 0 14 0C21.732 0 28 6.26802 28 14ZM15.1667 6.07392C15.1667 5.42959 14.6443 4.90725 14 4.90725C13.3557 4.90725 12.8333 5.42959 12.8333 6.07392V14.5108V15.123L13.3369 15.4708L19.0384 19.4091C19.5686 19.7753 20.2952 19.6423 20.6615 19.1122C21.0277 18.582 20.8947 17.8554 20.3646 17.4893L15.1667 13.8987V6.07392Z" fill="#3e3b3b"/>
</svg>
